PathFileType	4	(X/Y/Z)	./resultDataOpenSim/trcMotMarkerGrf/sub09/qtm-05-07.trc
DataRate	CameraRate	NumFrames	NumMarkers	Units	OrigDataRate	OrigDataStartFrame	OrigNumFrames
250.000000	250.000000	11	24	m	250.000000	1	513
Frame#	Time	L.Toe.Tip			R.Toe.Tip			L.Ankle.Lat			R.Ankle.Lat			L.Ankle.Med			R.Ankle.Med			L.Heel			R.Heel			L.Knee.Lat			R.Knee.Lat			L.Knee.Med			R.Knee.Med			L.Thigh.Upper			R.Thigh.Upper			L.ASIS			R.ASIS			V.Sacral			L.Acromium			R.Acromium			C7			L.Elbow			R.Elbow			L.Wrist.Lat			R.Wrist.Lat
		X1	Y1	Z1	X2	Y2	Z2	X3	Y3	Z3	X4	Y4	Z4	X5	Y5	Z5	X6	Y6	Z6	X7	Y7	Z7	X8	Y8	Z8	X9	Y9	Z9	X10	Y10	Z10	X11	Y11	Z11	X12	Y12	Z12	X13	Y13	Z13	X14	Y14	Z14	X15	Y15	Z15	X16	Y16	Z16	X17	Y17	Z17	X18	Y18	Z18	X19	Y19	Z19	X20	Y20	Z20	X21	Y21	Z21	X22	Y22	Z22	X23	Y23	Z23	X24	Y24	Z24

1	0	-1.5400474	0.037002924	-0.024773163	-0.96326351	0.094315114	0.097745492	-1.688015	0.081239288	-0.047960352	-1.1124508	0.073322946	0.12153508	-1.6567596	0.095520717	0.043316088	-1.0982799	0.11825566	0.034560124	NaN	NaN	NaN	-1.1623769	0.03504658	0.064389414	-1.5393433	0.47174884	-0.11403041	-1.1897169	0.52566129	0.17121507	-1.5315941	0.47045922	0.012005483	-1.1877918	0.50796003	0.043669402	-1.4392694	0.88038531	-0.15985258	-1.3990619	0.87372912	0.20879528	-1.3315961	0.95185012	-0.10989053	-1.3169692	0.95605847	0.1308329	-1.4903579	1.0189235	0.024663123	-1.2878196	1.4084517	-0.14330865	-1.3236903	1.412628	0.18313383	-1.3700197	1.4648043	0.015983859	-1.3836401	1.0426932	-0.22676336	NaN	NaN	NaN	-1.1245466	0.95858741	-0.18712204	-1.4298751	0.8381326	0.28374306
2	0.004	-1.5400057	0.036956129	-0.024840025	-0.9462981	0.098630011	0.097700535	-1.6875482	0.082023548	-0.047998479	-1.0954886	0.073872969	0.1212415	-1.656108	0.096041469	0.043302865	-1.0820727	0.11927464	0.0343306	NaN	NaN	NaN	-1.1451332	0.034889846	0.062724897	-1.5369091	0.47172422	-0.11412103	-1.1843245	0.52402612	0.17110086	-1.5295598	0.47026463	0.012140819	-1.1812048	0.50665474	0.043502818	-1.4336387	0.87931176	-0.15964564	-1.3927355	0.87217245	0.20904418	-1.3257601	0.95049089	-0.10987487	-1.3108735	0.95453637	0.13091734	-1.4842557	1.0175077	0.025122962	-1.2822239	1.4072924	-0.14305542	-1.3182499	1.4112436	0.18345474	-1.364535	1.4635547	0.016489705	-1.3768374	1.0412062	-0.22675531	NaN	NaN	NaN	-1.1171221	0.95930107	-0.18667026	-1.4247235	0.83665147	0.28383951
3	0.008	-1.5399618	0.036902908	-0.024905748	-0.92985167	0.10288825	0.097893887	-1.687156	0.082798165	-0.04803872	-1.0788117	0.074496131	0.12091538	-1.6554872	0.096594716	0.043238731	-1.066081	0.12038172	0.034119816	NaN	NaN	NaN	-1.1280816	0.034819892	0.061136344	-1.5344488	0.47170773	-0.11421619	-1.1793097	0.52227416	0.17083825	-1.5272994	0.47008966	0.012244708	-1.1746518	0.5053359	0.043323626	-1.4279883	0.87824552	-0.15940382	-1.3864801	0.87056869	0.20926544	-1.3198949	0.94916	-0.10984673	-1.3047005	0.95306189	0.13102561	-1.4780656	1.0160552	0.025700476	-1.2765933	1.4061215	-0.14276286	-1.31277	1.4098704	0.18377006	-1.3590852	1.4623089	0.016867726	-1.3700426	1.0397101	-0.22672617	NaN	NaN	NaN	-1.1096975	0.95996063	-0.18619564	-1.4195841	0.83516729	0.2839437
4	0.012	-1.539914	0.036841186	-0.024969569	-0.91404395	0.1071233	0.098298301	-1.6868314	0.083578928	-0.048094725	-1.0625396	0.075248355	0.12057377	-1.6549103	0.097193955	0.043116695	-1.0504385	0.12161604	0.033930925	NaN	NaN	NaN	-1.1109384	0.034708628	0.060290283	-1.5319657	0.47167847	-0.11423802	-1.1744656	0.52043619	0.17045957	-1.5247279	0.46994035	0.01230011	-1.1681418	0.50399979	0.043127547	-1.4223327	0.87718954	-0.1591102	-1.3802368	0.86891696	0.20946536	-1.3139849	0.94785422	-0.10980404	-1.298408	0.95163431	0.13115831	-1.4717296	1.014547	0.0264662	-1.2709101	1.4049297	-0.14242443	-1.3072364	1.4085011	0.18408357	-1.3536255	1.4610577	0.017186256	-1.3632513	1.0382004	-0.22666544	NaN	NaN	NaN	-1.1022846	0.96053926	-0.18570351	-1.414429	0.83366973	0.28405823
5	0.016	-1.5398621	0.03677586	-0.025031458	-0.89876049	0.11138237	0.098740418	-1.6865242	0.084390134	-0.04817826	-1.0466937	0.076147921	0.12025076	-1.6543721	0.097825944	0.042967369	-1.0352299	0.1229629	0.033752628	NaN	NaN	NaN	-1.0935082	0.034451748	0.060644886	-1.529507	0.47159977	-0.11404353	-1.1692092	0.51866289	0.17013384	-1.5218817	0.46980181	0.012314592	-1.1616812	0.50265261	0.042927002	-1.4166927	0.87613967	-0.15876634	-1.3739082	0.86724362	0.20966222	-1.3080422	0.946551	-0.10975019	-1.292004	0.95023308	0.13130042	-1.4653056	1.0129976	0.02733853	-1.2651873	1.403716	-0.14206503	-1.301663	1.4071246	0.18440176	-1.3481027	1.4597921	0.017550725	-1.3564659	1.0366805	-0.2265649	NaN	NaN	NaN	-1.0949132	0.9610308	-0.18521152	-1.4092295	0.83214706	0.28417933
6	0.02	-1.5398064	0.036715195	-0.025093535	-0.88388444	0.11567238	0.099086527	-1.6862	0.085238211	-0.048296041	-1.031267	0.077185635	0.11996232	-1.6538504	0.098473324	0.042813982	-1.0204953	0.12438565	0.03356523	NaN	NaN	NaN	-1.0761991	0.034213014	0.061666214	-1.527094	0.47145491	-0.11357334	-1.1631481	0.51707294	0.17000439	-1.518833	0.46964261	0.012315774	-1.1552677	0.50129902	0.042737019	-1.4110549	0.87508334	-0.15838412	-1.367459	0.86556597	0.20987095	-1.3020729	0.94524731	-0.1096805	-1.2855184	0.94884569	0.13144285	-1.4589221	1.0114428	0.028129795	-1.259434	1.4024834	-0.14170562	-1.2960643	1.4057403	0.18472848	-1.3425242	1.4585118	0.017917668	-1.3496881	1.0351551	-0.22641373	NaN	NaN	NaN	-1.0875997	0.9614346	-0.18472736	-1.4039797	0.83060249	0.28429937
7	0.024	-1.539745	0.036664404	-0.025158592	-0.86937587	0.1199596	0.099274995	-1.6858401	0.086116057	-0.048459964	-1.0162014	0.078369104	0.1197267	-1.6533179	0.099137581	0.042646584	-1.0062649	0.12584443	0.033347718	NaN	NaN	NaN	-1.0595858	0.034215714	0.062508322	-1.5245883	0.47126522	-0.11302342	-1.1562499	0.51568675	0.17012127	-1.5156207	0.46943271	0.012326287	-1.1488867	0.4999429	0.042560811	-1.4053954	0.87400911	-0.15797783	-1.360917	0.86388871	0.21010442	-1.2960601	0.94397292	-0.10957643	-1.2790035	0.94746923	0.13158523	-1.4526416	1.0099076	0.028740742	-1.2536487	1.4012358	-0.1413438	-1.2904459	1.4043578	0.18507104	-1.3369361	1.457215	0.018169755	-1.3429222	1.033632	-0.22621517	NaN	NaN	NaN	-1.0803487	0.96174952	-0.18424934	-1.3986993	0.8290522	0.28440754
8	0.028	-1.5396753	0.0366245	-0.025226245	-0.85529851	0.12415358	0.099306254	-1.6854178	0.087028882	-0.048684385	-1.0013055	0.079763336	0.11959607	-1.6527588	0.099837849	0.042441098	-0.99257567	0.12730206	0.033089901	NaN	NaN	NaN	-1.0438713	0.034500104	0.062848002	-1.5217623	0.47106496	-0.11268465	-1.148804	0.51444362	0.17042387	-1.5122351	0.46916611	0.012347727	-1.1425115	0.49859263	0.042402883	-1.3997001	0.87291591	-0.15755785	-1.3543131	0.86221362	0.21036561	-1.2899738	0.94275525	-0.10942039	-1.2725082	0.94610902	0.1317269	-1.446428	1.0083917	0.029221322	-1.2478366	1.3999797	-0.14096896	-1.2848039	1.402986	0.18543664	-1.3313568	1.4558962	0.018278194	-1.3361764	1.0321249	-0.22599317	NaN	NaN	NaN	-1.0731615	0.96198103	-0.18377316	-1.3934104	0.82750489	0.28449401
9	0.032	-1.5395975	0.036594288	-0.025292331	-0.84178965	0.1281236	0.099208497	-1.6848919	0.087994181	-0.04897756	-0.98638901	0.081437923	0.11961414	-1.6521678	0.10059426	0.042189653	-0.9794249	0.12873468	0.032796673	NaN	NaN	NaN	-1.0289791	0.034973154	0.062784021	-1.5185793	0.47086194	-0.11254129	-1.141327	0.51324329	0.17076779	-1.508667	0.46886777	0.012372854	-1.1361062	0.49726152	0.04227719	-1.3939639	0.8718101	-0.15712919	-1.3476331	0.86054732	0.21064913	-1.2837982	0.9415893	-0.10921843	-1.2660369	0.94477144	0.13186882	-1.4402275	1.0068896	0.029673943	-1.2420083	1.3987254	-0.140579	-1.2791368	1.4016248	0.1858218	-1.3257394	1.4545672	0.018392214	-1.3294575	1.0306462	-0.22576892	-1.4559529	1.0881091	0.25815847	-1.0660352	0.96214073	-0.18329765	-1.3880884	0.82596741	0.28456002
10	0.036	-1.539514	0.036570593	-0.025353307	-0.82894865	0.13177428	0.098995742	-1.6842349	0.089020095	-0.049336336	-0.97163953	0.083305402	0.11968	-1.6515494	0.10140733	0.041904858	-0.96673017	0.13014084	0.032479294	NaN	NaN	NaN	-1.0148076	0.035521081	0.062477967	-1.5151688	0.47063287	-0.1123403	-1.1341505	0.51202413	0.17106169	-1.5049238	0.46856379	0.012400418	-1.1296353	0.49597155	0.042190218	-1.3881858	0.87069629	-0.15669219	-1.3408405	0.85890037	0.21095058	-1.2775522	0.94044657	-0.10899984	-1.259574	0.94345831	0.13201801	-1.4340111	1.0054078	0.030172838	-1.2361615	1.3974849	-0.14018105	-1.2734462	1.4002676	0.18621663	-1.3199758	1.4532649	0.018822385	-1.3227671	1.0291985	-0.22553819	-1.450268	1.0869114	0.2581917	-1.0589645	0.962228	-0.18282546	-1.382655	0.82445202	0.28461909
11	0.04	-1.5394257	0.036549792	-0.025409935	-0.81678393	0.13507744	0.098674847	-1.683463	0.090107125	-0.049743752	-0.95764444	0.08508007	0.11954187	-1.650918	0.10225976	0.041599511	-0.95442097	0.1315231	0.032141403	NaN	NaN	NaN	-1.001322	0.036053821	0.06200376	-1.5115313	0.47034774	-0.11202447	-1.127194	0.51079614	0.17132655	-1.5010146	0.46824539	0.012430685	-1.1230797	0.49475497	0.042133884	-1.382363	0.86957751	-0.15624437	-1.3339299	0.85728419	0.21127125	-1.2712957	0.93929525	-0.10880045	-1.253112	0.94217111	0.13218371	-1.4277652	1.0039531	0.030739346	-1.2302858	1.3962698	-0.13978602	-1.2677259	1.3989108	0.18661493	-1.3139661	1.452024	0.019845688	-1.3161036	1.0277765	-0.2252806	-1.4444038	1.0856928	0.25815787	-1.0519489	0.96222992	-0.18235967	-1.3770565	0.82296303	0.28468417
